<svg xmlns="http://www.w3.org/2000/svg" width="30" height="30" viewBox="0 0 30 30">
  <g id="Group_3" data-name="Group 3" transform="translate(-720 -1334)">
    <rect id="Rectangle_5" data-name="Rectangle 5" width="30" height="30" transform="translate(720 1334)" fill="#fff"/>
    <g id="Path_7" data-name="Path 7" transform="translate(725.359 1342.282)" fill="#6be128">
      <path d="M 5.756394863128662 17.5570068359375 L 5.756394863128662 0.7948716282844543 L 5.155520915985107 0.7069475054740906 L 5.63546895980835 -1.137851238250732 L 15.44139194488525 -0.4272966384887695 L 17.91811752319336 14.87009525299072 L 5.756394863128662 17.5570068359375 Z" stroke="none"/>
      <path d="M 6.014542579650879 -0.6090755462646484 L 5.671553611755371 0.7092905044555664 L 6.25639533996582 0.7948713302612305 L 6.25639533996582 16.93448829650879 L 17.34905052185059 14.48376750946045 L 15.01098918914795 0.04282379150390625 L 6.014542579650879 -0.6090755462646484 M 5.25639533996582 -1.666627883911133 L 15.87178516387939 -0.8974189758300781 L 18.48717498779297 15.25643157958984 L 5.25639533996582 18.17953109741211 L 5.25639533996582 0.7948713302612305 L 0.3333148956298828 17.25645065307617 L 5.25639533996582 -1.666627883911133 Z" stroke="none" fill="#000"/>
    </g>
    <g id="Ellipse_4" data-name="Ellipse 4" transform="translate(732 1341.385)" fill="#fff" stroke="#707070" stroke-width="1">
      <ellipse cx="0.923" cy="0.692" rx="0.923" ry="0.692" stroke="none"/>
      <ellipse cx="0.923" cy="0.692" rx="0.423" ry="0.192" fill="none"/>
    </g>
    <g id="Ellipse_5" data-name="Ellipse 5" transform="translate(738.462 1341.846)" fill="#fff" stroke="#707070" stroke-width="1">
      <ellipse cx="0.923" cy="0.692" rx="0.923" ry="0.692" stroke="none"/>
      <ellipse cx="0.923" cy="0.692" rx="0.423" ry="0.192" fill="none"/>
    </g>
    <path id="Path_8" data-name="Path 8" d="M-.1-5.49s-.846-5,2.846-4.692S5.9-5.029,5.9-5.029" transform="translate(733.251 1347.567)" fill="none" stroke="#000" stroke-width="1"/>
    <path id="Path_9" data-name="Path 9" d="M0-.179a4.972,4.972,0,0,1,2.385,0A4.124,4.124,0,0,1,4.154,1.205" transform="translate(726.231 1358.872)" fill="none" stroke="#707070" stroke-width="1"/>
    <path id="M" d="M9.461,10.548l-1.421-.012L7.49,6.55Q7.4,5.905,7.348,5.127H7.312q-.027.611-.079.879l-.876,4.518-1.18-.01L3.033,6.007q-.087-.182-.328-.932h-.04q.192.986.294,1.731l.5,3.7-1.306-.011L1.249,3.81l2.117.025L5.216,7.8q.221.476.358.956H5.6q.045-.553.123-.96L6.49,3.872,8.541,3.9Z" transform="translate(732 1342.077)" fill="#fff"/>
  </g>
</svg>
